<svg xmlns="http://www.w3.org/2000/svg" viewBox="0 0 667.34 135.01"><path d="M126.39 37.52l-6.92-7.61c-.87-.96-2.43-.81-3.3.03-2.36 2.28-4.72 4.55-7.08 6.82-.54-1.98-.9-5.5-2.38-6.98-1.38-1.38-4.73-1.61-6.47-2.08l-16.36-4.41-25.48-6.87c-2.34-.63-4.06 2.31-2.35 4.04C69.92 34.48 83.8 48.5 97.67 62.53c-3.51 3.45-7.01 6.9-10.52 10.35-2.15 2.11 1.19 5.37 3.34 3.26l10.47-10.29c.74.75 1.49 1.5 2.23 2.25-12.82 12.7-25.65 25.39-38.48 38.09.28-3.63.48-7.4-.36-10.45-.39-1.41-2.25-2.71-3.2-3.67-2.9-2.93-5.8-5.86-8.7-8.8-3.53-3.57-7.39-9.22-11.77-11.78-1.82-1.07-5.38-.53-7.36-.63l-4.3-.21c11.8-11.68 23.61-23.36 35.41-35.04 2.22-2.19-1.2-5.61-3.42-3.42-13.1 12.96-26.21 25.93-39.31 38.9-1.56 1.54-.35 4.03 1.71 4.13l14.99.72.05.05c.83.84 1.67 1.68 2.5 2.53 2.7 2.72 5.39 5.45 8.09 8.17l10.53 10.65c.02.21.04.5.03.87-.01 1.84-.02 3.68-.04 5.53-.02 2.87-.03 5.74-.05 8.61-.01 2.12 2.64 3.18 4.13 1.71 14.9-14.74 29.79-29.48 44.69-44.22.94-.93.92-2.49 0-3.42-1.3-1.32-2.61-2.63-3.91-3.95 1.87-1.83 3.73-3.67 5.6-5.5 2.12 7.16 4.23 14.33 6.35 21.49.88 2.98 5.55 1.71 4.66-1.29-2.34-7.92-4.68-15.84-7.02-23.77-.03-.09-.06-.19-.08-.28l12.51-12.3c.94-.94.8-2.38-.05-3.3zM38.02 75.58c-.19-.12-.21-.17 0 0zm21.49 21.36c-.05-.13-.03-.15 0 0zm43.25-64.28c-.05-.08-.05-.09 0 0zm-36.97-9.24l37.28 10.05c.06.17.12.36.18.59l1.5 5.09c.14.47.28.94.41 1.4-1.6 1.54-3.2 3.08-4.79 4.62-2.17 2.09 1.17 5.35 3.34 3.26.98-.95 1.96-1.89 2.95-2.84l1.86 6.29-7.38 7.26c-11.79-11.9-23.57-23.81-35.35-35.72zm44.79 18.4c2.39-2.3 4.77-4.6 7.16-6.9 1.26 1.39 2.53 2.78 3.8 4.17l-9.11 8.96c-.62-2.08-1.24-4.16-1.85-6.23zm33.01 56.88h11.18V77.01h17.86v-9.46h-17.86V53.83h21.82v-9.47h-33zm148.54-54.34h-11.18V98.7h33v-9.47h-21.82zm76.84 23.03h-19.41V44.36h-11.18V98.7h11.18V76.86h19.41V98.7h11.18V44.36h-11.18zm149.11-23.03l-18.17 27.25-18.17-27.25h-8.23l-1.87 54.34h11.49l-.15-34.93 14.14 21.11h5.58l14.13-21.11-.14 34.93h11.49l-1.88-54.34zm50.49 31.1h18.63V66h-18.63V53.83h22.2v-9.47h-33.38V98.7h34.08v-9.47h-22.9zm60.86 13.77V75.46h18.63V66h-18.63V53.83h22.2v-9.47h-33.38V98.7h34.08v-9.47zm-399.6 9.9c-15.22 0-27.61-12.38-27.61-27.61 0-15.23 12.38-27.61 27.61-27.61 15.22 0 27.61 12.38 27.61 27.61-.01 15.23-12.39 27.61-27.61 27.61zm0-45.33c-9.77 0-17.73 7.96-17.73 17.73s7.95 17.73 17.73 17.73c9.77 0 17.73-7.96 17.73-17.73-.01-9.77-7.96-17.73-17.73-17.73z" fill="#03c"/><path d="M45.67 90.38c-3.98-3.95-9.6-5.03-13.87-3.05 0 0-5.85 1.55-10.03 13.88l7.18-1.69s-10.68 12.83-11.44 19.23c6.4-.81 19.14-11.59 19.14-11.59l-1.63 7.19c12.3-4.28 13.8-10.13 13.8-10.13v-.01c1.95-4.27.83-9.88-3.15-13.83zm-3.05 9.15c-1.76 1.82-10.37 4.09-10.37 4.09s2.03-8.67 3.79-10.48a4.582 4.582 0 0 1 6.48-.1 4.576 4.576 0 0 1 .1 6.49zm384.3-.4c-15.22 0-27.61-12.38-27.61-27.61 0-15.23 12.38-27.61 27.61-27.61 15.22 0 27.61 12.38 27.61 27.61-.01 15.23-12.39 27.61-27.61 27.61zm0-45.33c-9.78 0-17.73 7.96-17.73 17.73s7.95 17.73 17.73 17.73c9.77 0 17.73-7.96 17.73-17.73s-7.96-17.73-17.73-17.73zM67.34 68.71a8.086 8.086 0 0 0-5.75-2.4c-4.44 0-8.06 3.61-8.09 8.04-.02 4.46 3.59 8.11 8.04 8.13h.04c4.44 0 8.06-3.61 8.09-8.05a7.97 7.97 0 0 0-2.33-5.72zm-5.75 9.91a4.22 4.22 0 1 1 .002-8.442 4.22 4.22 0 0 1-.002 8.442z" fill="#f60"/></svg>